<svg xmlns="http://www.w3.org/2000/svg" viewBox="0 0 309 82" role="img" aria-label="numer — B, cercanía; propuesta"><title>numer — B, cercanía; propuesta</title><g fill="#222629"><path d="M54.450 72L45.450 72L45.450 44.950Q45.450 41.100 44.775 37.550Q44.100 34 42.425 31.175Q40.750 28.350 37.925 26.700Q35.100 25.050 30.800 25.050L30.800 25.050Q27.450 25.050 24.725 26.175Q22 27.300 20.050 29.600Q18.100 31.900 17.025 35.375Q15.950 38.850 15.950 43.550L15.950 43.550L10.100 41.750Q10.100 33.900 12.925 28.275Q15.750 22.650 20.875 19.625Q26 16.600 32.950 16.600L32.950 16.600Q38.200 16.600 41.900 18.250Q45.600 19.900 48.050 22.625Q50.500 25.350 51.900 28.725Q53.300 32.100 53.875 35.575Q54.450 39.050 54.450 42.150L54.450 42.150L54.450 72ZM15.950 72L6.950 72L6.950 18L14.950 18L14.950 32.450L15.950 32.450L15.950 72Z M85.450 73.400L85.450 73.400Q80.250 73.400 76.525 71.750Q72.800 70.100 70.350 67.350Q67.900 64.600 66.500 61.250Q65.100 57.900 64.525 54.400Q63.950 50.900 63.950 47.850L63.950 47.850L63.950 18L72.950 18L72.950 45.050Q72.950 48.850 73.650 52.400Q74.350 55.950 76.025 58.800Q77.700 61.650 80.525 63.300Q83.350 64.950 87.600 64.950L87.600 64.950Q90.950 64.950 93.700 63.800Q96.450 62.650 98.400 60.375Q100.350 58.100 101.400 54.600Q102.450 51.100 102.450 46.450L102.450 46.450L108.300 48.250Q108.300 56.050 105.475 61.700Q102.650 67.350 97.525 70.375Q92.400 73.400 85.450 73.400ZM111.400 72L103.450 72L103.450 57.550L102.450 57.550L102.450 18L111.400 18L111.400 72Z M196.350 72L187.450 72L187.500 37.450Q187.500 31.400 184.275 27.975Q181.050 24.550 175.900 24.550L175.900 24.550Q172.900 24.550 170.200 25.925Q167.500 27.300 165.800 30.225Q164.100 33.150 164.100 37.700L164.100 37.700L159.400 35.800Q159.300 30.050 161.775 25.725Q164.250 21.400 168.550 19Q172.850 16.600 178.250 16.600L178.250 16.600Q186.700 16.600 191.550 21.725Q196.400 26.850 196.400 35.500L196.400 35.500L196.350 72ZM131.800 72L122.850 72L122.850 18L130.800 18L130.800 32.450L131.800 32.450L131.800 72ZM164.050 72L155.200 72L155.250 37.800Q155.250 31.600 152.050 28.075Q148.850 24.550 143.550 24.550L143.550 24.550Q138.300 24.550 135.050 28.150Q131.800 31.750 131.800 37.700L131.800 37.700L127.100 34.900Q127.100 29.650 129.600 25.500Q132.100 21.350 136.400 18.975Q140.700 16.600 146.150 16.600L146.150 16.600Q151.600 16.600 155.650 18.900Q159.700 21.200 161.900 25.475Q164.100 29.750 164.100 35.650L164.100 35.650L164.050 72Z M229.800 73.500L229.800 73.500Q221.850 73.500 215.925 69.975Q210 66.450 206.700 60.125Q203.400 53.800 203.400 45.350L203.400 45.350Q203.400 36.500 206.650 30.025Q209.900 23.550 215.725 20.025Q221.550 16.500 229.400 16.500L229.400 16.500Q237.550 16.500 243.275 20.250Q249 24 251.875 30.950Q254.750 37.900 254.350 47.500L254.350 47.500L245.350 47.500L245.350 44.300Q245.200 34.350 241.300 29.425Q237.400 24.500 229.700 24.500L229.700 24.500Q221.450 24.500 217.150 29.800Q212.850 35.100 212.850 45L212.850 45Q212.850 54.550 217.150 59.800Q221.450 65.050 229.400 65.050L229.400 65.050Q234.750 65.050 238.700 62.600Q242.650 60.150 244.900 55.550L244.900 55.550L253.450 58.500Q250.300 65.650 243.975 69.575Q237.650 73.500 229.800 73.500ZM249.750 47.500L209.850 47.500L209.850 40.350L249.750 40.350L249.750 47.500Z M271.900 72L262.950 72L262.950 18L270.900 18L270.900 31.050L269.600 29.350Q270.550 26.850 272.075 24.750Q273.600 22.650 275.500 21.300L275.500 21.300Q277.600 19.600 280.250 18.700Q282.900 17.800 285.650 17.625Q288.400 17.450 290.800 18L290.800 18L290.800 26.350Q288 25.600 284.650 25.950Q281.300 26.300 278.450 28.400L278.450 28.400Q275.850 30.250 274.425 32.900Q273 35.550 272.450 38.625Q271.900 41.700 271.900 44.900L271.900 44.900L271.900 72Z "/></g></svg>
